Coordinates
version=1
nRows=14
nColumns=40
inDegrees=yes

Units are S.I. units (second, meters, Newtons, ...)
If the header above contains a line with 'inDegrees', this indicates whether rotational values are in degrees (yes) or radians (no).

endheader
time	pelvis_tilt	pelvis_list	pelvis_rotation	pelvis_tx	pelvis_ty	pelvis_tz	hip_flexion_r	hip_adduction_r	hip_rotation_r	knee_angle_r	knee_angle_r_beta	ankle_angle_r	subtalar_angle_r	mtp_angle_r	hip_flexion_l	hip_adduction_l	hip_rotation_l	knee_angle_l	knee_angle_l_beta	ankle_angle_l	subtalar_angle_l	mtp_angle_l	lumbar_extension	lumbar_bending	lumbar_rotation	arm_flex_r	arm_add_r	arm_rot_r	elbow_flex_r	pro_sup_r	wrist_flex_r	wrist_dev_r	arm_flex_l	arm_add_l	arm_rot_l	elbow_flex_l	pro_sup_l	wrist_flex_l	wrist_dev_l
      0.43000000	     27.86732712	     -5.39925130	     -0.74838038	      0.40257760	      0.94385108	     -0.18709027	    -29.69514420	      7.57905762	     -1.93212308	      6.53285505	      0.11401983	     10.89879925	      0.00000000	      0.00000000	     -9.46051646	    -12.14778417	     -9.24150699	     51.23895541	      0.89428848	      6.96495143	      0.00000000	      0.00000000	    -42.66303683	     -0.13884797	     10.07067320	      7.55945615	     -5.59793181	     -3.70978451	     32.92181054	     88.97383381	    -14.81332718	      2.64784859	      0.37876536	     -2.96583757	     10.36216349	      9.14255382	     89.00487884	    -18.31788904	     -0.60387371
      0.44000000	     27.42323237	     -5.09970527	     -0.88621211	      0.41069314	      0.94280267	     -0.18660738	    -29.72142323	      7.26934920	     -2.13170932	      6.63137229	      0.11573928	     11.78062876	      0.00000000	      0.00000000	     -8.41685234	    -11.65588335	     -9.39680455	     48.55363202	      0.84742074	      6.95449188	      0.00000000	      0.00000000	    -42.20832892	     -0.59449016	     10.37706489	      7.78724771	     -5.70123758	     -4.28996543	     33.79263630	     88.97652398	    -14.69782774	      2.61952369	      0.24970644	     -2.99677546	     10.32638242	      8.93581210	     89.00741525	    -18.19368840	     -0.43718970
      0.45000000	     26.94697951	     -5.29833039	     -0.70461661	      0.41881917	      0.94137707	     -0.18678231	    -29.72292146	      7.56406282	     -1.98017027	      6.72244110	      0.11732873	     12.42211759	      0.00000000	      0.00000000	     -7.28161089	    -11.70130834	     -9.18731521	     45.91150361	      0.80130690	      7.23391114	      0.00000000	      0.00000000	    -41.64274201	     -0.38271565	     10.49403143	      8.27149232	     -5.89777466	     -4.03448079	     34.23494131	     88.96920404	    -14.63888035	      2.48203436	     -0.01081945	     -2.99385295	     10.47079043	      8.73093245	     89.00929070	    -18.21313879	     -0.41236079
      0.46000000	     26.60362140	     -4.72680197	     -0.88256747	      0.42682189	      0.94038157	     -0.18638009	    -29.75313236	      6.95581124	     -2.50228183	      7.00456609	      0.12225274	     13.15738337	      0.00000000	      0.00000000	     -6.57315260	    -10.79612963	     -9.19219553	     42.66256888	      0.74460229	      6.99143062	      0.00000000	      0.00000000	    -41.36669881	     -1.11775698	     10.59213718	      8.47055452	     -5.90891658	     -4.71436126	     35.22591943	     88.97636064	    -14.39931301	      2.47425834	     -0.12071436	     -3.06506418	     10.26421879	      8.65098445	     88.99548004	    -18.11137296	     -0.35847895
      0.47000000	     26.23408941	     -4.54693516	     -0.87688662	      0.43487352	      0.93908408	     -0.18652365	    -29.76599130	      6.78522866	     -2.68482588	      7.29024362	      0.12723875	     13.82400793	      0.00000000	      0.00000000	     -5.83176008	    -10.29969493	     -8.92718427	     39.44880660	      0.68851156	      6.89191889	      0.00000000	      0.00000000	    -40.99554323	     -1.35777946	     10.69817660	      8.77193784	     -6.03968681	     -4.89609670	     35.96485694	     88.97823981	    -14.18193511	      2.43176253	     -0.30247996	     -3.08353889	     10.14878651	      8.61888981	     88.99678494	    -18.14573275	     -0.38424362
      0.48000000	     25.89942689	     -4.33714682	     -0.89829814	      0.44285177	      0.93774126	     -0.18672914	    -29.77647680	      6.56508524	     -2.79557464	      7.65756196	      0.13364967	     14.62268758	      0.00000000	      0.00000000	     -5.22792880	     -9.73426671	     -8.54169657	     36.08057082	      0.62972476	      6.71206641	      0.00000000	      0.00000000	    -40.68793907	     -1.63651104	     10.82445439	      9.03331469	     -6.17396194	     -5.16965339	     36.77208967	     88.97581147	    -13.75375086	      2.54993646	     -0.46078774	     -3.09456628	      9.91665192	      8.67355678	     88.98987843	    -18.18671688	     -0.44402084
      0.49000000	     25.59288505	     -4.15214026	     -0.97759101	      0.45079356	      0.93641494	     -0.18695259	    -29.78761392	      6.32589380	     -2.82151531	      8.08999676	      0.14119708	     15.27168087	      0.00000000	      0.00000000	     -4.75995547	     -9.15492120	     -8.02499934	     32.58498610	      0.56871529	      6.32127569	      0.00000000	      0.00000000	    -40.41862397	     -1.92337375	     10.96111600	      9.34520217	     -6.31132773	     -5.13024728	     37.40298151	     88.95821334	    -13.87081636	      2.29389523	     -0.59792044	     -3.07648050	      9.79315193	      8.66534642	     88.98072655	    -18.49810475	     -0.69913773
      0.50000000	     25.27939176	     -3.91710004	     -0.85632932	      0.45887594	      0.93489543	     -0.18753133	    -29.79441153	      6.13335894	     -3.17838136	      8.52588360	      0.14880474	     16.09664780	      0.00000000	      0.00000000	     -4.30301766	     -8.52623427	     -7.05686205	     29.09760078	      0.50784894	      5.97709845	      0.00000000	      0.00000000	    -40.15217750	     -2.11934172	     10.88363365	      9.60552274	     -6.40567801	     -5.21315763	     38.13045626	     88.96532278	    -13.75032881	      2.24975569	     -0.79302753	     -3.09669846	      9.34949152	      8.88550064	     88.98875907	    -18.61305521	     -0.83044406
      0.51000000	     24.99843945	     -3.88967723	     -0.74206346	      0.46688175	      0.93335492	     -0.18828621	    -29.80002655	      6.10974061	     -3.29430321	      9.04726668	      0.15790459	     16.62482389	      0.00000000	      0.00000000	     -3.94940238	     -8.10989446	     -5.81969609	     25.67241686	      0.44806820	      5.73204259	      0.00000000	      0.00000000	    -39.91043617	     -2.13071840	     10.98150249	      9.85764951	     -6.57401863	     -5.15742905	     38.75066696	     88.95733148	    -13.67186910	      2.18009226	     -0.91588796	     -3.06391128	      9.06137029	      9.04580334	     88.98196449	    -18.71810101	     -0.93697474
      0.52000000	     24.71602061	     -3.77986519	     -0.71751611	      0.47501921	      0.93173611	     -0.18881382	    -29.80670310	      5.97311503	     -3.47383006	      9.58553868	      0.16729921	     17.35382477	      0.00000000	      0.00000000	     -3.71673702	     -7.65025576	     -4.63685808	     22.24566924	      0.38826017	      5.26519118	      0.00000000	      0.00000000	    -39.65858835	     -2.26760026	     11.07186809	     10.06803695	     -6.68906931	     -5.12873186	     39.39433247	     88.95491147	    -13.61907121	      2.08747068	     -1.05048493	     -3.05555019	      8.67021569	      9.25962768	     88.98056204	    -18.88430943	     -1.10472039
      0.53000000	     24.40402652	     -3.83298199	     -0.71520448	      0.48329917	      0.92995186	     -0.18934255	    -29.81483084	      5.97597391	     -3.61092742	     10.05635115	      0.17551644	     18.05991019	      0.00000000	      0.00000000	     -3.49769663	     -7.43232030	     -3.62817048	     19.02812874	      0.33210350	      4.99287252	      0.00000000	      0.00000000	    -39.38799587	     -2.25603520	     11.21619116	     10.26299974	     -6.77963806	     -5.03053900	     40.02121784	     88.95671046	    -13.57466800	      1.97326811	     -1.18475772	     -3.02065697	      8.33946341	      9.45510698	     88.97256119	    -19.02765091	     -1.25381977
      0.54000000	     24.20023900	     -3.36681441	     -0.95262792	      0.49166619	      0.92840107	     -0.18970072	    -29.81999158	      5.34270090	     -3.80195509	     10.85928153	      0.18953022	     19.06524412	      0.00000000	      0.00000000	     -3.54418316	     -6.65818162	     -2.68310811	     15.82551083	      0.27620727	      3.86319892	      0.00000000	      0.00000000	    -39.24958675	     -2.85919492	     11.23713523	     10.38121575	     -6.82273467	     -5.07707088	     40.70353384	     88.95890212	    -13.53224953	      1.84868047	     -1.39526100	     -3.00592168	      7.31734866	      9.94160148	     88.99908021	    -19.32165815	     -1.57853995
      0.55000000	     23.95824061	     -3.33037272	     -1.06988292	      0.50009994	      0.92661392	     -0.19025472	    -29.82440137	      5.17587609	     -3.75205605	     11.57295881	      0.20198624	     19.79427907	      0.00000000	      0.00000000	     -3.49337531	     -6.41761077	     -1.85080229	     13.09527972	      0.22855575	      3.38578510	      0.00000000	      0.00000000	    -39.03616168	     -3.00387261	     11.42787189	     10.49879864	     -6.91139258	     -4.95340870	     41.25049055	     88.95814778	    -13.49240321	      1.71126046	     -1.53956091	     -2.95241020	      6.61745195	     10.28909136	     89.00788805	    -19.44700445	     -1.75275623
      0.56000000	     23.71337294	     -3.26001616	     -1.29165861	      0.50868934	      0.92479190	     -0.19072093	    -29.83006423	      4.91045226	     -3.73531969	     12.30777135	      0.21481113	     20.57566278	      0.00000000	      0.00000000	     -3.47615640	     -6.17132565	     -1.35991902	     10.69900048	      0.18673279	      2.93695801	      0.00000000	      0.00000000	    -38.80869604	     -3.22161167	     11.68909391	     10.56387014	     -6.98583520	     -4.81679816	     41.76338401	     88.95989994	    -13.46929721	      1.54676354	     -1.69690220	     -2.89846429	      5.81930809	     10.73281889	     89.01923144	    -19.52814685	     -1.93430588
